<svg data-v-423bf9ae="" xmlns="http://www.w3.org/2000/svg" viewBox="0 0 44.679400946075496 60" class="icon"><!----><!----><!----><!----><g data-v-423bf9ae="" id="b0db8fbc-560d-4422-8a12-ab459b7d9e86" transform="matrix(0.6821903178023956,0,0,0.6821903178023956,-11.666792076504663,-4.912452624226624)" stroke="none" fill="white"><circle cx="35.526" cy="37.087" r="4"></circle><circle cx="63.738" cy="37.087" r="5.89"></circle><path fill-rule="evenodd" clip-rule="evenodd" d="M68.847 15.276H33.492L17.123 7.201v74.857s-1.091 13.095 12.44 13.095h38.411s14.622-1.308 14.622-15.495V7.201l-13.749 8.075zM35.769 47.994c-6.203 0-11.232-5.028-11.232-11.231s5.029-11.231 11.232-11.231C41.971 25.531 47 30.559 47 36.762s-5.029 11.232-11.231 11.232zm16.07 5.526l-1.989 4.26-1.99-4.26-1.99-4.258h7.959l-1.99 4.258zm12.377-5.526c-6.203 0-11.231-5.028-11.231-11.231s5.028-11.231 11.231-11.231 11.231 5.028 11.231 11.231-5.028 11.231-11.231 11.231z"></path></g><!----></svg>