<svg data-v-423bf9ae="" xmlns="http://www.w3.org/2000/svg" viewBox="0 0 60.02417266088265 60" class="icon"><!----><!----><!----><!----><g data-v-423bf9ae="" id="fb880f6e-bc81-4008-b858-af731ba86fa4" transform="matrix(0.7499074573278635,0,0,0.7499074573278635,-7.474153309365285,-7.492280482202148)" stroke="none" fill="black"><path d="M67.99 14.27c19.729 9.94 27.67 33.98 17.74 53.72l-7.521-7.79c5.64-15.58-2.43-32.78-18.01-38.41-.312-.12-.92-.32-1.24-.42l-5.33-2.05 2.91 3.35 21.67 37.53 6.04 10.46c-.75 1.31-2.4 3.64-3.39 4.779-14.052 17.051-39.262 19.48-56.302 5.42l3.102-10.829c11.06 12.329 30.029 13.37 42.37 2.31.63-.55 1.76-1.68 2.31-2.31L66.55 60H36.36l2.87-10h20.229l2.61.75-1.95-1.89-9.46-16.38-.66-2.64-.66 2.64L39.23 50 27.66 70.03l-5.19 8.989C9.821 67.77 6.18 46.88 14.27 32.01c9.94-19.73 33.98-27.67 53.72-17.74zm-24.53 8.4l2.91-3.35-5.33 2.05C26.26 25.83 17.2 41.53 20.72 56.55l.892 5.65L23.06 58l20.4-35.33z"></path></g><!----></svg>